<svg width="89" height="89" viewBox="0 0 89 89" fill="none" xmlns="http://www.w3.org/2000/svg">
<path d="M53.2348 38.1154L55.2088 27.5696L57.9426 28.0813L55.9686 38.6271L53.2348 38.1154Z" fill="#D6D6D4"/>
<path d="M60.2069 39.285L62.6976 28.8843L65.4041 29.5324L62.9134 39.9331L60.2069 39.285Z" fill="#D6D6D4"/>
<path d="M39.3361 28.1339L42.0673 27.6166L44.2065 38.9107L41.4753 39.4281L39.3361 28.1339Z" fill="#D6D6D4"/>
<path d="M32.1063 30.6099L34.6932 29.5835L39.2162 40.9829L36.6293 42.0093L32.1063 30.6099Z" fill="#D6D6D4"/>
<path d="M67.4448 40.962L69.6999 30.7723L72.4137 31.3729L70.1586 41.5626L67.4448 40.962Z" fill="#D6D6D4"/>
<path d="M47.2812 19.4688H50.0625V30.5938H47.2812V19.4688Z" fill="#D6D6D4"/>
<path d="M18.0781 36.1562H22.25V38.9375H18.0781V36.1562Z" fill="#F98500"/>
<path d="M84.8281 40.3281V59.7968H43.4813C42.1226 59.7991 40.7975 59.374 39.6936 58.5818C38.4171 57.6738 37.5247 56.3228 37.1905 54.7923L35.3149 46.1826C35.2191 45.7458 35.1707 45.3 35.1706 44.8528C35.1782 43.516 35.6078 42.2157 36.3982 41.1375C37.1886 40.0593 38.2993 39.2583 39.572 38.8488C46.8633 36.4593 54.727 36.4593 62.0184 38.8488C64.8394 39.7733 67.764 40.3455 70.7254 40.5523C71.5615 40.6114 72.4006 40.641 73.2425 40.641L84.8281 40.3281Z" fill="#FEC093"/>
<path d="M9.94836 42.0212C13.1386 42.0212 15.7248 39.4631 15.7248 36.3075C15.7248 33.1519 13.1386 30.5938 9.94836 30.5938C6.75809 30.5938 4.17188 33.1519 4.17188 36.3075C4.17188 39.4631 6.75809 42.0212 9.94836 42.0212Z" fill="#E67007"/>
<path d="M37.5469 48.6719C37.5469 51.6224 36.3748 54.4521 34.2884 56.5384C32.2021 58.6248 29.3724 59.7969 26.4219 59.7969H17.7691C15.1464 59.7969 12.6311 58.755 10.7766 56.9005C8.92202 55.0459 7.88016 52.5307 7.88016 49.908V47.4358C7.88016 44.8131 8.92202 42.2978 10.7766 40.4433C12.6311 38.5887 15.1464 37.5469 17.7691 37.5469H26.4219C29.3724 37.5469 32.2021 38.719 34.2884 40.8053C36.3748 42.8917 37.5469 45.7213 37.5469 48.6719Z" fill="#FEC9A3"/>
<path d="M4.17188 48.9997C4.17188 54.9629 9.70604 59.7969 16.533 59.7969H20.2412C20.2412 53.3186 10.3525 42.5215 10.3525 42.5215L20.3669 37.489L20.8594 36.1562H17.0084C10.1816 36.1562 4.17188 40.8773 4.17188 46.8403V48.9997Z" fill="#F98500"/>
<path d="M22.5413 57.0564L20.4133 55.266L20.9409 54.6391C21.0742 54.493 21.1763 54.3213 21.2408 54.1343C21.3054 53.9474 21.3311 53.7492 21.3164 53.552C21.2817 53.3235 21.2016 53.1041 21.0809 52.907C20.9602 52.7098 20.8013 52.5387 20.6136 52.4039L22.3409 50.2242C22.8218 50.5887 23.224 51.0465 23.5234 51.5703C23.8229 52.0941 24.0133 52.6731 24.0834 53.2723C24.136 53.8398 24.0733 54.412 23.8991 54.9546C23.7249 55.4972 23.4427 55.999 23.0696 56.4297L22.5413 57.0564Z" fill="#F5AF7D"/>
<path d="M22.3355 47.5594L20.619 45.3716C20.8083 45.2377 20.9688 45.0672 21.0909 44.8701C21.213 44.673 21.2943 44.4534 21.3299 44.2243C21.344 44.0281 21.3176 43.8311 21.2524 43.6455C21.1872 43.4599 21.0846 43.2897 20.951 43.1454L20.4173 42.518L22.5372 40.7172L23.0703 41.3447C23.4468 41.774 23.7321 42.2754 23.9086 42.8185C24.0851 43.3615 24.1492 43.9348 24.0969 44.5035C24.026 45.1057 23.8333 45.6872 23.5304 46.2126C23.2276 46.7379 22.8211 47.1962 22.3355 47.5594Z" fill="#F5AF7D"/>
<path d="M29.9447 54.1841L27.5865 52.712C28.1575 51.7887 28.46 50.7247 28.46 49.6391C28.46 48.5536 28.1575 47.4895 27.5865 46.5663L29.9455 45.0941C30.7903 46.4596 31.2378 48.0336 31.2376 49.6392C31.2375 51.2449 30.7897 52.8188 29.9447 54.1841Z" fill="#F5AF7D"/>
<path d="M8.34375 59.7969H84.8281V72.3125H8.34375C7.2373 72.3125 6.17617 71.873 5.39379 71.0906C4.61141 70.3082 4.17188 69.2471 4.17188 68.1406V63.9688C4.17188 62.8623 4.61141 61.8012 5.39379 61.0188C6.17617 60.2364 7.2373 59.7969 8.34375 59.7969Z" fill="#E0E0DE"/>
<path d="M84.8281 8.34375V19.4687L66.8595 18.471L59.7969 18.0781L51.7591 22.7923C51.3725 22.9857 50.9314 23.0412 50.509 22.9497C50.0865 22.8581 49.708 22.6249 49.4362 22.2888C49.1644 21.9527 49.0156 21.5338 49.0144 21.1015C49.0132 20.6693 49.1598 20.2496 49.4298 19.912L51.3002 17.574C51.5255 17.2925 51.6801 16.9611 51.7511 16.6076C51.822 16.254 51.8073 15.8886 51.708 15.542C51.6087 15.1953 51.4277 14.8775 51.1804 14.6151C50.933 14.3528 50.6263 14.1535 50.2861 14.034C49.9459 13.9145 49.582 13.8783 49.2249 13.9284C48.8678 13.9784 48.5279 14.1133 48.2336 14.3218C47.9394 14.5302 47.6994 14.8061 47.5337 15.1264C47.368 15.4466 47.2814 15.8019 47.2812 16.1625V19.4687C47.2812 20.2064 46.9882 20.9138 46.4666 21.4354C45.9451 21.957 45.2376 22.25 44.5 22.25C43.7624 22.25 43.0549 21.957 42.5334 21.4354C42.0118 20.9138 41.7188 20.2064 41.7188 19.4687V12.5156L47.2812 8.34375H84.8281Z" fill="#FEC9A3"/>
<path d="M4.17188 72.3125H84.8281V80.6562H4.17188V72.3125Z" fill="#92563A"/>
<path d="M27.8125 37.643V37.4751C27.8125 37.0002 27.719 36.53 27.5372 36.0913C27.3555 35.6526 27.089 35.2539 26.7532 34.9182C26.4174 34.5824 26.0187 34.3161 25.5799 34.1345C25.1412 33.9528 24.6709 33.8594 24.196 33.8595H24.0123C23.5374 33.8594 23.0671 33.9528 22.6284 34.1345C22.1896 34.3161 21.7909 34.5824 21.4551 34.9182C21.1192 35.2539 20.8528 35.6526 20.6711 36.0913C20.4893 36.53 20.3958 37.0002 20.3958 37.4751V37.5469H26.4219C26.887 37.55 27.3514 37.5821 27.8125 37.643Z" fill="#FEB784"/>
<path d="M84.8281 40.3281V59.7969H43.4814C42.1226 59.7991 40.7976 59.374 39.6937 58.5818C48.8405 55.6702 61.2379 50.2328 70.7255 40.5524C71.5616 40.6115 72.4006 40.641 73.2425 40.641L84.8281 40.3281Z" fill="#FEB784"/>
<path d="M84.8281 59.7969H42.4141C41.1232 59.7969 39.8852 59.2841 38.9724 58.3713C38.0597 57.4585 37.5469 56.2205 37.5469 54.9297C37.5469 53.6388 38.0597 52.4008 38.9724 51.4881C39.8852 50.5753 41.1232 50.0625 42.4141 50.0625H84.8281V59.7969Z" fill="#FEC9A3"/>
<path d="M84.8281 8.34375V19.4688L66.8595 18.471C71.2122 15.5663 75.6604 12.1714 79.6306 8.34375H84.8281Z" fill="#FEC093"/>
<path d="M76.4844 38.9375H84.8281V72.3125H76.4844V38.9375Z" fill="#F59898"/>
<path d="M84.8281 72.3125H58.1281L48.1156 80.6562H84.8281V72.3125Z" fill="#885137"/>
</svg>
