<svg width="89" height="89" viewBox="0 0 89 89" fill="none" xmlns="http://www.w3.org/2000/svg">
<path d="M66.75 77.875L63.9688 82.0469H57.0156L59.7969 62.5781L55.625 36.1562V4.17188H68.1406L66.75 36.1562L68.1406 65.3594L66.75 77.875Z" fill="#FEB784"/>
<path d="M5.5625 77.875L8.34375 82.0469H15.2969L12.5156 62.5781L16.6875 36.1562V4.17188H4.17188L5.5625 36.1562L4.17188 65.3594L5.5625 77.875Z" fill="#FEC093"/>
<path d="M60.9302 73.0269L59.4544 84.8281H40.3281V70.9219H31.9844V84.8281H12.1732L11.5717 80.0166L10.6974 73.0269C9.84812 66.2262 11.1123 59.3289 14.3182 53.2714L17.9182 46.4729C20.4868 41.6217 21.1709 35.992 19.839 30.6668L18.9073 26.2098C18.5925 24.7076 18.3672 23.188 18.2328 21.659C18.1285 20.5117 18.0781 19.3575 18.0781 18.205V16.6875H54.2344C54.2327 20.3772 53.7101 24.0482 52.6821 27.5917L51.7886 30.6668C50.4567 35.992 51.1408 41.6217 53.7094 46.4729L57.3094 53.2714C60.5154 59.3289 61.7795 66.2262 60.9302 73.0269Z" fill="#FEC9A3"/>
<path d="M60.9302 73.0269L59.4544 84.8281H40.3281V70.9219H31.9844V84.8281H12.1732L11.5717 80.0166C20.7099 73.8474 46.2609 53.3722 47.509 16.6875H54.2344C54.2327 20.3772 53.7101 24.0482 52.6821 27.5917L51.7886 30.6668C50.4567 35.992 51.1408 41.6217 53.7094 46.4729L57.3094 53.2714C60.5153 59.3289 61.7795 66.2262 60.9302 73.0269Z" fill="#FEC093"/>
<path d="M59.4544 58.4062L40.3281 70.9219H31.9844L29.2622 69.2027L12.1732 58.4062H59.4544Z" fill="#F59898"/>
<path d="M34.7656 43.1094H37.5469V47.2812H34.7656V43.1094Z" fill="#F5AF7D"/>
<path d="M54.2344 16.6875C54.2347 18.4282 54.118 20.1669 53.885 21.8919C53.0142 22.1291 52.1158 22.2495 51.2132 22.25H21.6625C20.4939 22.2504 19.3339 22.0505 18.2328 21.659C18.1285 20.5117 18.0781 19.3575 18.0781 18.205V16.6875H54.2344Z" fill="#FEC093"/>
<path d="M60.1445 9.73437C60.1445 12.3161 59.1189 14.7921 57.2934 16.6176C55.4678 18.4432 52.9919 19.4687 50.4102 19.4687H22.5977C20.8186 19.47 19.0732 18.9834 17.5514 18.0617C16.0297 17.1401 14.7898 15.8187 13.9668 14.2414C13.1437 12.6642 12.769 10.8914 12.8834 9.11597C12.9978 7.34055 13.5968 5.6305 14.6155 4.17188H58.3923C59.5347 5.80165 60.1466 7.74411 60.1445 9.73437Z" fill="#F59898"/>
<path d="M59.4544 58.4062L40.3281 70.9219H31.9844L29.2622 69.2027C36.0815 67.5983 43.4883 64.4503 49.2073 58.4062H59.4544Z" fill="#EC8C8C"/>
<path d="M59.1068 41.3224C57.5469 42.8506 55.5718 43.886 53.4276 44.2994C51.2833 44.7128 49.0649 44.4861 47.0486 43.6474C45.0324 42.8088 43.3076 41.3952 42.0891 39.5831C40.8707 37.7709 40.2125 35.6402 40.1966 33.4566C40.1807 31.2729 40.8078 29.1329 41.9998 27.3032C43.1917 25.4735 44.8958 24.035 46.8996 23.1671C48.9034 22.2991 51.1184 22.0401 53.2684 22.4223C55.4184 22.8045 57.4084 23.811 58.9903 25.3163C59.0842 25.405 59.178 25.4971 59.2702 25.591C61.3345 27.6989 62.477 30.5404 62.4463 33.4906C62.4157 36.4407 61.2144 39.2579 59.1068 41.3224Z" fill="#E0E0DE"/>
<path d="M59.1068 41.3224C57.1986 43.1915 54.6816 44.3118 52.0157 44.4784C49.3498 44.645 46.7129 43.8468 44.5869 42.2298C50.3476 39.3112 56.362 34.2076 58.9903 25.3163C59.0842 25.4049 59.1781 25.4971 59.2702 25.5909C61.3345 27.6988 62.477 30.5403 62.4463 33.4905C62.4157 36.4407 61.2144 39.2578 59.1068 41.3224Z" fill="#D6D6D4"/>
<path d="M47.9677 29.9022L47.9675 29.9023C46.0478 31.822 46.0478 34.9346 47.9675 36.8543L66.043 54.9298C67.9628 56.8495 71.0753 56.8495 72.995 54.9298L72.9952 54.9297C74.9149 53.0099 74.9149 49.8974 72.9952 47.9777L54.9197 29.9022C52.9999 27.9824 49.8874 27.9824 47.9677 29.9022Z" fill="#EBEBE9"/>
<path d="M84.8281 57.0156L82.0469 63.9688L84.8281 84.8281H65.3594V63.9688L58.4062 59.7969L57.0156 50.0625H63.9688V40.7801C63.9695 40.0129 64.243 39.271 64.7405 38.6869C65.2379 38.1028 65.9268 37.7147 66.6841 37.5918C67.4414 37.4689 68.2177 37.6193 68.8743 38.0162C69.5309 38.413 70.025 39.0304 70.2683 39.758L70.9219 41.7187H80.6562C81.7625 41.7194 82.8232 42.1592 83.6054 42.9414C84.3877 43.7237 84.8274 44.7844 84.8281 45.8906V57.0156Z" fill="#4DB7E5"/>
<path d="M63.9688 57.0156C63.5999 57.0156 63.2462 56.8691 62.9854 56.6083C62.7246 56.3475 62.5781 55.9938 62.5781 55.625V50.0625C62.5781 49.6937 62.7246 49.34 62.9854 49.0792C63.2462 48.8184 63.5999 48.6719 63.9688 48.6719C64.3376 48.6719 64.6913 48.8184 64.9521 49.0792C65.2129 49.34 65.3594 49.6937 65.3594 50.0625V55.625C65.3594 55.9938 65.2129 56.3475 64.9521 56.6083C64.6913 56.8691 64.3376 57.0156 63.9688 57.0156Z" fill="#45A7D1"/>
<path d="M84.8281 57.0157L82.0469 63.9688L84.8281 84.8282H65.3594V81.1795C71.233 75.391 79.2465 64.3286 83.9607 43.3458C84.5244 44.0743 84.8296 44.9696 84.8281 45.8907V57.0157Z" fill="#48ADD9"/>
<path d="M60.1445 9.73438C60.1445 12.3161 59.1189 14.7921 57.2934 16.6176C55.4678 18.4432 52.9919 19.4688 50.4102 19.4688H31.9287C39.452 16.02 46.9388 11.1198 53.4174 4.17188H58.3923C59.5347 5.80165 60.1466 7.74411 60.1445 9.73438Z" fill="#EC8C8C"/>
</svg>
