<svg width="89" height="89" viewBox="0 0 89 89" fill="none" xmlns="http://www.w3.org/2000/svg">
<path d="M58.4062 84.8281H30.5938C31.5149 82.0649 31.9844 79.1712 31.9844 76.2584V65.3594H57.0156V76.2584C57.0156 79.1712 57.4851 82.0649 58.4062 84.8281Z" fill="#FEC093"/>
<path d="M31.9844 65.3594V74.4958C35.5851 77.2271 39.9805 78.7055 44.5 78.7055C49.0195 78.7055 53.4149 77.2271 57.0156 74.4958V65.3594H31.9844Z" fill="#FEB784"/>
<path d="M69.5312 29.2032V42.7444C69.5313 51.9322 66.1306 60.7949 59.9846 67.6244C57.1091 70.8191 53.3158 73.0462 49.1248 74.0004C44.9338 74.9545 40.5503 74.589 36.5751 72.954C36.3961 72.8792 36.2171 72.8027 36.0398 72.7245C34.7066 72.1318 33.4394 71.4006 32.259 70.543C32.0886 70.4196 31.9218 70.2927 31.7549 70.164C30.7678 69.4009 29.8509 68.551 29.0154 67.6244C22.8693 60.7949 19.4686 51.9322 19.4687 42.7444V29.2032C19.4604 24.2003 20.959 19.3108 23.7692 15.1718C26.7714 10.7335 31.1186 7.37589 36.1714 5.59266C41.2242 3.80944 46.7159 3.69477 51.8388 5.26552C56.9616 6.83627 61.4452 10.0095 64.63 14.3186C67.8148 18.6276 69.5328 23.8449 69.5312 29.2032Z" fill="#FEC9A3"/>
<path d="M31.7549 70.164C30.7678 69.4009 29.8509 68.551 29.0154 67.6244C22.8693 60.7949 19.4686 51.9322 19.4687 42.7444V29.2032C19.4604 24.2003 20.959 19.3108 23.7692 15.1718C27.1416 19.5904 28.9711 24.9935 28.9771 30.5521V34.9238L31.289 46.4886C31.4981 47.5344 31.2929 48.6206 30.7167 49.518C30.1404 50.4155 29.2382 51.054 28.2002 51.2991C27.1622 51.5442 26.0696 51.3766 25.1529 50.8316C24.2361 50.2867 23.5667 49.407 23.286 48.3781L24.4993 52.8299C24.4993 52.8299 29.2709 61.5752 31.8644 66.2859C32.1935 66.8834 32.3569 67.558 32.3376 68.2399C32.3184 68.9217 32.1172 69.5861 31.7549 70.164Z" fill="#FEC093"/>
<path d="M69.5312 29.2031V42.7443C69.5313 51.9321 66.1306 60.7948 59.9846 67.6243C57.109 70.8191 53.3158 73.0462 49.1248 74.0003C44.9338 74.9545 40.5502 74.589 36.5751 72.9539C37.7357 72.637 38.8706 72.2326 39.97 71.7441C43.0571 70.3722 45.8207 68.3655 48.0808 65.8548C55.1794 57.9684 59.1071 47.7333 59.1067 37.1227V21.4834C59.1142 16.1588 57.6389 10.9373 54.8462 6.40381C59.2252 8.39221 62.9388 11.5998 65.543 15.643C68.1472 19.6861 69.5318 24.3938 69.5312 29.2031Z" fill="#FEC093"/>
<path d="M44.5 4.17188C37.8613 4.17188 31.4945 6.80909 26.8002 11.5034C22.106 16.1976 19.4688 22.5644 19.4688 29.2031V35.3393C19.4688 28.7006 22.106 22.3338 26.8002 17.6395C31.4945 12.9452 37.8613 10.308 44.5 10.308C51.1387 10.308 57.5055 12.9452 62.1998 17.6395C66.894 22.3338 69.5312 28.7006 69.5312 35.3393V29.2031C69.5312 22.5644 66.894 16.1976 62.1998 11.5034C57.5055 6.80909 51.1387 4.17188 44.5 4.17188Z" fill="#FFB531"/>
<path d="M44.5 4.17188C44.0307 4.17188 43.5725 4.21655 43.1094 4.24141V10.3775C43.5725 10.352 44.0307 10.3071 44.5 10.3071C44.9693 10.3071 45.4275 10.352 45.8906 10.3775V4.24141C45.4275 4.21655 44.9693 4.17188 44.5 4.17188Z" fill="#F7A116"/>
<path d="M28.0067 10.4068L31.5007 13.9785C32.3253 13.4743 33.1785 13.0185 34.0559 12.6132L30.2016 8.67395C29.4383 9.2103 28.7055 9.78883 28.0067 10.4068Z" fill="#F7A116"/>
<path d="M34.8281 6.11282L37.4937 11.3216C38.4147 11.0569 39.3502 10.8457 40.2955 10.689L37.4795 5.18823C36.5789 5.4462 35.6937 5.75489 34.8281 6.11282Z" fill="#F7A116"/>
<path d="M23.4534 15.6856L26.1373 18.3693C26.7657 17.6867 27.4313 17.0395 28.1311 16.4304L25.0978 13.397C24.5072 14.1284 23.9582 14.8925 23.4534 15.6856Z" fill="#F7A116"/>
<path d="M58.7966 8.67212L54.9447 12.6135C55.8217 13.0184 56.6745 13.4741 57.4986 13.978L60.9908 10.4043C60.2921 9.78661 59.5596 9.20831 58.7966 8.67212Z" fill="#F7A116"/>
<path d="M51.4714 5.1759L48.6477 10.6802C49.5936 10.835 50.5298 11.0445 51.4516 11.3075L54.1252 6.0958C53.2586 5.73941 52.3726 5.43229 51.4714 5.1759Z" fill="#F7A116"/>
<path d="M63.9022 13.397L60.8689 16.4304C61.5688 17.0395 62.2344 17.6867 62.8627 18.3693L65.5466 15.6856C65.0418 14.8925 64.4928 14.1284 63.9022 13.397Z" fill="#F7A116"/>
<path d="M37.3093 36.0775C33.3248 36.7593 29.2534 36.7593 25.2689 36.0775L24.7936 38.8179C29.0926 39.554 33.4855 39.554 37.7845 38.8179L37.3093 36.0775Z" fill="#F5AF7D"/>
<path d="M53.0814 36.0775L52.6061 38.8179C56.9051 39.554 61.298 39.554 65.597 38.8179L65.1218 36.0775C61.1373 36.7593 57.0659 36.7593 53.0814 36.0775Z" fill="#F5AF7D"/>
<path d="M37.3975 51.4057L37.0308 51.5523L38.063 54.1354L38.4296 53.988C42.1722 52.4915 46.8277 52.4908 50.5704 53.988L50.937 54.1347L51.9692 51.5516L51.6024 51.4056C47.2107 49.6476 41.7893 49.6483 37.3975 51.4057Z" fill="#F5AF7D"/>
<path d="M37.2074 29.7246L37.8864 27.0275C32.385 25.641 26.8796 26.6779 22.785 29.8706L24.4962 32.0638C29.1683 28.4188 34.4642 29.034 37.2074 29.7246Z" fill="#F7A116"/>
<path d="M64.5038 32.0638L66.215 29.8706C62.1204 26.6765 56.6137 25.641 51.1136 27.0275L51.7926 29.7246C54.5358 29.034 59.8336 28.4188 64.5038 32.0638Z" fill="#F7A116"/>
<path d="M43.1094 30.5938H45.8906V45.8906H43.1094V30.5938Z" fill="#FFD5B8"/>
<path d="M27.7226 62.6028C25.305 58.213 20.8594 50.0625 20.8594 50.0625L19.7281 45.9146C19.9898 46.8734 20.6137 47.6932 21.4681 48.201C22.3225 48.7088 23.3407 48.865 24.308 48.6366C25.2754 48.4082 26.1162 47.8132 26.6533 46.9769C27.1904 46.1406 27.3818 45.1284 27.1871 44.1537L25.0312 33.375V29.3019C25.0313 26.1844 24.4172 23.0974 23.2242 20.2172C22.0312 17.337 20.2826 14.72 18.0781 12.5156V4.17188H4.17188V28.3004C4.1719 28.8983 4.26828 29.4922 4.4573 30.0594L11.125 50.0625L21.5356 66.358C21.7976 66.7682 22.1415 67.1199 22.5457 67.3911C22.95 67.6623 23.4058 67.8471 23.8848 67.9339C24.3637 68.0208 24.8554 68.0078 25.3292 67.8959C25.8029 67.7839 26.2484 67.5754 26.6378 67.2833L26.7073 67.2312C27.4078 66.713 27.8967 65.9585 28.0834 65.1075C28.2701 64.2564 28.1419 63.3666 27.7226 62.6028Z" fill="#FEC9A3"/>
<path d="M19.7281 47.3057C19.433 47.3053 19.1455 47.2112 18.9073 47.0369C18.6691 46.8626 18.4924 46.6171 18.4027 46.3359L13.9715 32.406C13.9161 32.2319 13.8955 32.0487 13.911 31.8667C13.9264 31.6847 13.9776 31.5075 14.0615 31.3453C14.1454 31.183 14.2605 31.0389 14.4001 30.9211C14.5397 30.8034 14.7011 30.7142 14.8752 30.6589C15.0493 30.6035 15.2325 30.5829 15.4145 30.5984C15.5965 30.6138 15.7737 30.665 15.9359 30.7489C16.0982 30.8328 16.2423 30.9478 16.3601 31.0875C16.4779 31.2271 16.567 31.3885 16.6224 31.5626L21.0536 45.4926C21.1196 45.7011 21.1356 45.9222 21.1002 46.1381C21.0649 46.3539 20.9792 46.5583 20.8501 46.7349C20.721 46.9114 20.5522 47.0551 20.3573 47.1543C20.1624 47.2534 19.9468 47.3053 19.7281 47.3057Z" fill="#F5AF7D"/>
<path d="M61.2774 62.6028C63.695 58.213 68.1406 50.0625 68.1406 50.0625L69.2719 45.9146C69.0102 46.8734 68.3863 47.6932 67.5319 48.201C66.6775 48.7088 65.6593 48.865 64.692 48.6366C63.7247 48.4082 62.8838 47.8132 62.3467 46.9769C61.8096 46.1406 61.6182 45.1284 61.8129 44.1537L63.9688 33.375V29.3019C63.9687 26.1844 64.5828 23.0974 65.7758 20.2172C66.9688 17.337 68.7175 14.72 70.9219 12.5156V4.17188H84.8281V28.3004C84.8281 28.8983 84.7317 29.4922 84.5427 30.0594L77.875 50.0625L67.4644 66.358C67.2024 66.7682 66.8585 67.1199 66.4543 67.3911C66.05 67.6623 65.5942 67.8471 65.1152 67.9339C64.6363 68.0208 64.1446 68.0078 63.6708 67.8959C63.1971 67.7839 62.7516 67.5754 62.3622 67.2833L62.2927 67.2312C61.5922 66.713 61.1033 65.9585 60.9166 65.1075C60.7299 64.2564 60.8581 63.3666 61.2774 62.6028Z" fill="#FEC9A3"/>
<path d="M69.2719 47.3057C69.0532 47.3053 68.8377 47.2534 68.6428 47.1543C68.4478 47.0551 68.279 46.9114 68.1499 46.7349C68.0209 46.5583 67.9352 46.3539 67.8998 46.1381C67.8645 45.9222 67.8805 45.7011 67.9465 45.4926L72.3777 31.5626C72.4331 31.3885 72.5222 31.2271 72.64 31.0875C72.7578 30.9478 72.9019 30.8328 73.0641 30.7489C73.2263 30.665 73.4035 30.6138 73.5855 30.5984C73.7675 30.5829 73.9508 30.6035 74.1249 30.6589C74.2989 30.7142 74.4604 30.8034 74.6 30.9211C74.7396 31.0389 74.8546 31.183 74.9386 31.3453C75.0225 31.5075 75.0736 31.6847 75.0891 31.8667C75.1045 32.0487 75.084 32.2319 75.0286 32.406L70.5974 46.3359C70.5077 46.6171 70.331 46.8626 70.0927 47.0369C69.8545 47.2112 69.5671 47.3053 69.2719 47.3057Z" fill="#F5AF7D"/>
</svg>
