<svg width="89" height="89" viewBox="0 0 89 89" fill="none" xmlns="http://www.w3.org/2000/svg">
<rect width="89" height="89" fill="white"/>
<path d="M73.7031 9.73439V84.8281H15.2969V9.73439C15.2969 8.25912 15.8829 6.84428 16.9261 5.8011C17.9693 4.75793 19.3841 4.17189 20.8594 4.17189H68.1406C68.3416 4.17148 68.5424 4.18251 68.7421 4.20491C70.1051 4.35316 71.3653 4.99957 72.281 6.02009C73.1966 7.04061 73.703 8.36333 73.7031 9.73439V9.73439Z" fill="#EBEBE9"/>
<path d="M73.7031 9.73443V84.8282H23.0618C40.0935 67.5844 60.8103 40.2969 68.7421 4.20496C70.1051 4.3532 71.3653 4.99961 72.281 6.02013C73.1966 7.04065 73.703 8.36337 73.7031 9.73443V9.73443Z" fill="#E0E0DE"/>
<path d="M55.625 61.1875C60.2331 61.1875 63.9688 57.4519 63.9688 52.8438C63.9688 48.2356 60.2331 44.5 55.625 44.5C51.0169 44.5 47.2812 48.2356 47.2812 52.8438C47.2812 57.4519 51.0169 61.1875 55.625 61.1875Z" fill="#FEC093"/>
<path d="M44.5 84.8281H62.5781L57.0156 70.9219L59.7969 51.4531L82.648 27.3324C84.0479 25.8548 84.8282 23.8968 84.8281 21.8613C84.8281 19.7515 83.99 17.7281 82.4981 16.2362C81.0063 14.7444 78.9829 13.9062 76.8731 13.9062H52.8438V22.25H73.7031L61.1875 33.375H27.8125L15.2969 22.25H36.1562V13.9062H12.1269C10.0171 13.9063 7.99373 14.7444 6.50186 16.2362C5.01 17.7281 4.17188 19.7515 4.17188 21.8613C4.17181 23.8968 4.95206 25.8548 6.35203 27.3324L29.2031 51.4531L31.9844 70.9219L26.4219 84.8281H44.5Z" fill="#FEC9A3"/>
<path d="M52.8438 22.25H58.4062V20.8594L61.1875 19.4688L57.3633 14.0222L57.329 13.9062H52.8438V22.25Z" fill="#FEC093"/>
<path d="M54.582 14.0222L58.4063 19.4688L55.625 20.8594V25.0312C55.625 25.7689 55.332 26.4763 54.8104 26.9979C54.2888 27.5195 53.5814 27.8125 52.8438 27.8125H48.6719V33.375H36.1563V25.0312L32.9994 18.7173C32.2593 17.2374 31.8962 15.5976 31.9421 13.9437C31.988 12.2897 32.4416 10.6726 33.2625 9.23601C34.1416 7.69762 35.4117 6.41896 36.9442 5.52962C38.4767 4.64028 40.217 4.17188 41.9889 4.17188H44.3623C48.4854 4.17188 52.4961 7.18484 53.655 10.8933L54.582 14.0222Z" fill="#FEC9A3"/>
<path d="M44.5 20.8594L43.1542 19.5136C42.6952 19.0541 42.3826 18.4688 42.256 17.8318C42.1295 17.1947 42.1946 16.5344 42.4432 15.9343C42.6917 15.3343 43.1126 14.8213 43.6526 14.4603C44.1925 14.0994 44.8274 13.9065 45.4769 13.9062H47.2812V4.6718C46.3418 4.34799 45.356 4.17914 44.3623 4.17188H41.9889C40.2757 4.17188 38.5909 4.60981 37.0946 5.44407C35.5982 6.27834 34.34 7.48125 33.4393 8.93857C32.5386 10.3959 32.0254 12.0593 31.9483 13.7707C31.8713 15.4822 32.233 17.1849 32.9992 18.7173L36.1562 25.0312H36.7049C38.2472 25.0312 39.7656 24.6504 41.1255 23.9226C42.4853 23.1948 43.6444 22.1426 44.5 20.8594V20.8594Z" fill="#FFA912"/>
<path d="M29.8984 16.6875C33.3545 16.6875 36.1562 13.8858 36.1562 10.4297C36.1562 6.97359 33.3545 4.17188 29.8984 4.17188C26.4423 4.17188 23.6406 6.97359 23.6406 10.4297C23.6406 13.8858 26.4423 16.6875 29.8984 16.6875Z" fill="#FFB531"/>
<path d="M45.1953 43.1094C47.1154 43.1094 48.6719 41.5529 48.6719 39.6328C48.6719 37.7128 47.1154 36.1562 45.1953 36.1562C43.2753 36.1562 41.7188 37.7128 41.7188 39.6328C41.7188 41.5529 43.2753 43.1094 45.1953 43.1094Z" fill="#FEC093"/>
<path d="M45.1953 55.625C47.1154 55.625 48.6719 54.0685 48.6719 52.1484C48.6719 50.2284 47.1154 48.6719 45.1953 48.6719C43.2753 48.6719 41.7188 50.2284 41.7188 52.1484C41.7188 54.0685 43.2753 55.625 45.1953 55.625Z" fill="#FEC093"/>
<path d="M45.1953 68.1406C47.1154 68.1406 48.6719 66.5841 48.6719 64.6641C48.6719 62.744 47.1154 61.1875 45.1953 61.1875C43.2753 61.1875 41.7188 62.744 41.7188 64.6641C41.7188 66.5841 43.2753 68.1406 45.1953 68.1406Z" fill="#FEC093"/>
<path d="M45.1953 80.6562C47.1154 80.6562 48.6719 79.0997 48.6719 77.1797C48.6719 75.2596 47.1154 73.7031 45.1953 73.7031C43.2753 73.7031 41.7188 75.2596 41.7188 77.1797C41.7188 79.0997 43.2753 80.6562 45.1953 80.6562Z" fill="#FEC093"/>
<path d="M26.4219 79.2656C26.42 80.0041 26.1866 80.7233 25.7544 81.322C24.966 82.4152 23.9222 83.299 22.7141 83.8964C21.4768 84.5113 20.1134 84.8303 18.7317 84.8281H11.862C10.5643 84.8302 9.28171 84.549 8.10386 84.0042C6.80214 83.4074 5.67739 82.4832 4.83937 81.322C4.40552 80.7241 4.17189 80.0044 4.17189 79.2656C4.17189 78.5269 4.40552 77.8072 4.83937 77.2093C5.62777 76.1161 6.6715 75.2323 7.87963 74.6349C9.11698 74.02 10.4803 73.701 11.862 73.7032H18.7317C20.3947 73.6991 22.0253 74.163 23.4372 75.0416C24.3442 75.6054 25.1315 76.3419 25.7544 77.2093C26.1866 77.808 26.42 78.5272 26.4219 79.2656V79.2656Z" fill="#44546C"/>
<path d="M23.6406 69.5313C23.6394 70.0855 23.4643 70.6254 23.14 71.0749C22.549 71.8942 21.7667 72.5566 20.8611 73.0044C19.9326 73.4654 18.9097 73.7046 17.873 73.7032H12.7207C11.8921 73.7042 11.0705 73.5515 10.2976 73.2529C9.15752 72.8198 8.16901 72.0627 7.45375 71.0749C7.12834 70.626 6.95312 70.0857 6.95312 69.5313C6.95312 68.9768 7.12834 68.4366 7.45375 67.9877C8.04474 67.1684 8.82708 66.506 9.73264 66.0582C10.6612 65.5971 11.6841 65.3579 12.7207 65.3594H17.873C18.7551 65.3535 19.6293 65.5264 20.4428 65.8676C21.2563 66.2087 21.9923 66.7112 22.6063 67.3445C22.7992 67.5461 22.9775 67.761 23.14 67.9877C23.4643 68.4372 23.6394 68.977 23.6406 69.5313V69.5313Z" fill="#44546C"/>
<path d="M22.25 61.1875C22.2496 61.7408 22.0771 62.2802 21.7563 62.7311C21.1769 63.5483 20.4057 64.2109 19.5105 64.6606C18.5972 65.121 17.5886 65.3604 16.5658 65.3593H14.0279C13.0205 65.367 12.0256 65.1347 11.1258 64.6816C10.2259 64.2285 9.44685 63.5676 8.85307 62.7537C8.84786 62.7467 8.84264 62.738 8.83743 62.7311C8.51625 62.2804 8.34364 61.7408 8.34364 61.1875C8.34364 60.6341 8.51625 60.0945 8.83743 59.6439C9.41689 58.8266 10.1881 58.1641 11.0833 57.7144C11.9965 57.2539 13.0052 57.0146 14.0279 57.0156H16.5658C17.4336 57.0112 18.2931 57.1833 19.0922 57.5216C19.8913 57.8599 20.6132 58.3572 21.214 58.9833C21.4111 59.1896 21.5924 59.4104 21.7563 59.6439C22.0771 60.0947 22.2496 60.6342 22.25 61.1875V61.1875Z" fill="#44546C"/>
<path d="M26.4219 79.2656C26.42 80.0041 26.1866 80.7233 25.7544 81.322C24.966 82.4152 23.9223 83.299 22.7141 83.8964C21.4768 84.5113 20.1134 84.8303 18.7317 84.8281H11.862C10.5643 84.8302 9.28171 84.549 8.10387 84.0042C13.0771 82.5197 18.697 79.841 23.4372 75.0416C24.3442 75.6054 25.1315 76.3419 25.7544 77.2093C26.1866 77.808 26.42 78.5272 26.4219 79.2656Z" fill="#3B495E"/>
<path d="M23.6406 69.5312C23.6393 70.0855 23.4643 70.6254 23.14 71.0748C22.549 71.8941 21.7667 72.5565 20.8611 73.0043C19.9326 73.4654 18.9097 73.7046 17.873 73.7031H12.7207C11.8921 73.7041 11.0705 73.5515 10.2976 73.2529C14.3582 72.3055 18.7056 70.5325 22.6063 67.3445C22.7992 67.546 22.9775 67.7609 23.14 67.9876C23.4643 68.4371 23.6393 68.977 23.6406 69.5312Z" fill="#3B495E"/>
<path d="M22.25 61.1874C22.2496 61.7407 22.0771 62.2802 21.7563 62.731C21.1769 63.5483 20.4057 64.2108 19.5105 64.6605C18.5972 65.121 17.5886 65.3603 16.5658 65.3593H14.0279C13.0205 65.367 12.0256 65.1346 11.1258 64.6815C10.2259 64.2284 9.44685 63.5675 8.85307 62.7536C12.8268 62.2234 17.2142 61.1231 21.214 58.9833C21.4111 59.1895 21.5924 59.4103 21.7563 59.6438C22.0771 60.0947 22.2496 60.6341 22.25 61.1874V61.1874Z" fill="#3B495E"/>
<path d="M47.2813 38.2421C47.2809 39.0994 46.9638 39.9262 46.3907 40.5638C45.8177 41.2014 45.0293 41.6047 44.1769 41.6961C43.3246 41.7876 42.4685 41.5608 41.7732 41.0594C41.078 40.5579 40.5926 39.8172 40.4103 38.9795C40.2281 38.1419 40.3619 37.2665 40.786 36.5215C41.2101 35.7765 41.8946 35.2146 42.7079 34.9437C43.5213 34.6728 44.406 34.7121 45.1921 35.054C45.9782 35.3959 46.6102 36.0163 46.9666 36.7959C47.1741 37.2498 47.2814 37.743 47.2813 38.2421V38.2421Z" fill="#4D5E78"/>
<path d="M47.2813 38.2423C47.281 38.9756 47.0488 39.69 46.618 40.2834C46.1872 40.8768 45.5798 41.3188 44.8827 41.5462C44.1855 41.7736 43.4343 41.7747 42.7365 41.5494C42.0386 41.3241 41.4299 40.8838 40.9974 40.2917C42.9512 39.7042 45.1831 38.6508 46.9666 36.796C47.1745 37.2498 47.2818 37.7431 47.2813 38.2423V38.2423Z" fill="#44546C"/>
<path d="M47.2813 50.7578C47.2809 51.615 46.9638 52.4419 46.3907 53.0794C45.8177 53.717 45.0293 54.1203 44.1769 54.2118C43.3246 54.3032 42.4685 54.0765 41.7732 53.575C41.078 53.0735 40.5926 52.3328 40.4103 51.4952C40.2281 50.6575 40.3619 49.7821 40.786 49.0371C41.2101 48.2921 41.8946 47.7302 42.7079 47.4593C43.5213 47.1884 44.406 47.2277 45.1921 47.5696C45.9782 47.9115 46.6102 48.5319 46.9666 49.3115C47.1741 49.7654 47.2814 50.2587 47.2813 50.7578V50.7578Z" fill="#4D5E78"/>
<path d="M47.2813 50.7579C47.281 51.4912 47.0488 52.2056 46.618 52.7991C46.1872 53.3925 45.5798 53.8345 44.8827 54.0618C44.1855 54.2892 43.4343 54.2903 42.7365 54.065C42.0386 53.8397 41.4299 53.3995 40.9974 52.8073C42.9512 52.2198 45.1831 51.1664 46.9666 49.3116C47.1745 49.7654 47.2818 50.2588 47.2813 50.7579V50.7579Z" fill="#44546C"/>
<path d="M47.2813 63.2734C47.2809 64.1306 46.9638 64.9575 46.3907 65.5951C45.8177 66.2326 45.0293 66.6359 44.1769 66.7274C43.3246 66.8189 42.4685 66.5921 41.7732 66.0906C41.078 65.5892 40.5926 64.8484 40.4103 64.0108C40.2281 63.1731 40.3619 62.2977 40.786 61.5527C41.2101 60.8078 41.8946 60.2458 42.7079 59.9749C43.5213 59.7041 44.406 59.7433 45.1921 60.0852C45.9782 60.4271 46.6102 61.0475 46.9666 61.8271C47.1741 62.281 47.2814 62.7743 47.2813 63.2734V63.2734Z" fill="#4D5E78"/>
<path d="M47.2813 63.2735C47.281 64.0068 47.0488 64.7213 46.618 65.3147C46.1872 65.9081 45.5798 66.3501 44.8827 66.5775C44.1855 66.8048 43.4343 66.8059 42.7365 66.5806C42.0386 66.3553 41.4299 65.9151 40.9974 65.323C42.9512 64.7354 45.1831 63.682 46.9666 61.8273C47.1745 62.281 47.2818 62.7744 47.2813 63.2735V63.2735Z" fill="#44546C"/>
<path d="M47.2813 75.789C47.2809 76.6462 46.9638 77.4731 46.3907 78.1107C45.8177 78.7483 45.0293 79.1515 44.1769 79.243C43.3246 79.3345 42.4685 79.1077 41.7732 78.6063C41.078 78.1048 40.5926 77.3641 40.4103 76.5264C40.2281 75.6888 40.3619 74.8133 40.786 74.0684C41.2101 73.3234 41.8946 72.7615 42.7079 72.4906C43.5213 72.2197 44.406 72.259 45.1921 72.6009C45.9782 72.9427 46.6102 73.5631 46.9666 74.3428C47.1741 74.7967 47.2814 75.2899 47.2813 75.789V75.789Z" fill="#4D5E78"/>
<path d="M47.2813 75.7891C47.281 76.5225 47.0488 77.2369 46.618 77.8303C46.1872 78.4237 45.5798 78.8657 44.8827 79.0931C44.1855 79.3205 43.4343 79.3216 42.7365 79.0963C42.0386 78.8709 41.4299 78.4307 40.9974 77.8386C42.9512 77.251 45.1831 76.1976 46.9666 74.3429C47.1745 74.7967 47.2818 75.29 47.2813 75.7891V75.7891Z" fill="#44546C"/>
</svg>
