<svg width="89" height="89" viewBox="0 0 89 89" fill="none" xmlns="http://www.w3.org/2000/svg">
<path d="M77.0562 56.2224C78.8058 54.9857 80.1858 53.2959 81.0481 51.3345C81.9105 49.373 82.2226 47.2138 81.951 45.0884C81.6795 42.963 80.8345 40.9517 79.5067 39.27C78.1789 37.5884 76.4184 36.2999 74.414 35.5428C75.1639 33.648 75.298 31.5652 74.7972 29.5899C74.2965 27.6146 73.1864 25.8472 71.6244 24.5384C73.1435 22.4142 73.8664 19.8231 73.6665 17.2192C73.4665 14.6154 72.3564 12.165 70.5308 10.2976C68.7051 8.43025 66.2804 7.26508 63.6818 7.00635C61.0831 6.74763 58.4763 7.41186 56.3183 8.8826C55.1504 7.05017 53.5479 5.53461 51.6533 4.47062C49.7586 3.40662 47.6305 2.82713 45.4579 2.78365C43.2854 2.74017 41.1358 3.23404 39.2001 4.22137C37.2643 5.20871 35.6025 6.65893 34.3622 8.44317C32.5746 7.31871 30.4694 6.80713 28.3651 6.98583C26.2609 7.16453 24.2721 8.02379 22.6997 9.43357C21.1273 10.8434 20.0569 12.727 19.6505 14.7993C19.244 16.8717 19.5237 19.0201 20.4471 20.9193C18.2314 21.1563 16.1499 22.0966 14.5075 23.6025C12.865 25.1085 11.7481 27.1009 11.3204 29.2878C10.8926 31.4746 11.1765 33.741 12.1304 35.7548C13.0844 37.7686 14.6582 39.424 16.6213 40.4783C15.3024 41.25 14.157 42.2857 13.2567 43.5205C12.3564 44.7552 11.7207 46.1625 11.3893 47.6543C11.0579 49.146 11.038 50.6901 11.3308 52.1899C11.6236 53.6897 12.2228 55.113 13.0909 56.3705C10.2005 58.073 7.95031 60.679 6.68737 63.7868C5.42442 66.8945 5.21881 70.3314 6.10223 73.5675C6.98565 76.8036 8.90906 79.6593 11.5759 81.6943C14.2427 83.7292 17.5049 84.8304 20.8594 84.8281H69.5313C72.9104 84.8295 76.1947 83.7115 78.8712 81.6488C81.5477 79.5862 83.4656 76.6951 84.3253 73.4272C85.1849 70.1593 84.9379 66.6987 83.6227 63.586C82.3076 60.4733 79.9985 57.884 77.0562 56.2224Z" fill="#E0E0DE"/>
<path d="M15.2969 59.7969H73.7031V65.3594H15.2969V59.7969Z" fill="#92563A"/>
<path d="M15.2969 65.3594H20.8594V84.8281H15.2969V65.3594Z" fill="#92563A"/>
<path d="M68.1406 65.3594H73.7031V84.8281H68.1406V65.3594Z" fill="#92563A"/>
<path d="M15.2969 65.3594H20.8594V68.1406H15.2969V65.3594Z" fill="#804A32"/>
<path d="M68.1406 65.3594H73.7031V68.1406H68.1406V65.3594Z" fill="#804A32"/>
<path d="M52.8438 12.5156V27.8125H36.1562V12.5156C36.1562 10.3027 37.0353 8.18046 38.6001 6.6157C40.1648 5.05095 42.2871 4.17188 44.5 4.17188C46.7129 4.17188 48.8352 5.05095 50.3999 6.6157C51.9647 8.18046 52.8438 10.3027 52.8438 12.5156Z" fill="#FFA912"/>
<path d="M54.2344 30.5938L53.3079 34.7656L51.693 42.0264C51.54 42.7217 51.6581 43.4491 52.0233 44.0602L53.6434 46.7598C54.9402 48.921 55.6251 51.3941 55.625 53.9145V54.2344C55.625 55.7096 55.039 57.1245 53.9958 58.1677C52.9526 59.2108 51.5378 59.7969 50.0625 59.7969H40.3281C38.8529 59.7969 37.438 59.2108 36.3948 58.1677C35.3517 57.1245 34.7656 55.7096 34.7656 54.2344C34.7663 51.4782 35.292 48.7474 36.3144 46.1879L37.114 44.1923C37.2501 43.8518 37.3125 43.4863 37.2972 43.1199C37.2819 42.7535 37.1893 42.3945 37.0254 42.0664C37.0254 42.0664 36.3083 40.1234 36.2214 40.0674C35.6659 39.7084 35.2119 39.2128 34.9029 38.6281C34.856 38.5412 34.8091 38.4525 34.7656 38.3621V41.7188L30.5938 59.7969H22.25C22.2497 58.9869 22.5044 58.1973 22.978 57.5402C23.4517 56.8832 24.1202 56.3919 24.8887 56.1361L26.4219 55.625L29.2031 41.7188V30.5938C29.2031 29.1185 29.7892 27.7036 30.8323 26.6605C31.8755 25.6173 33.2904 25.0312 34.7656 25.0312H41.0808V18.0781H47.9192V25.0312H54.2344C55.7096 25.0312 57.1245 25.6173 58.1677 26.6605C59.2108 27.7036 59.7969 29.1185 59.7969 30.5938V41.7188L62.5781 55.625L64.1113 56.1361C64.8798 56.3919 65.5483 56.8832 66.022 57.5402C66.4956 58.1973 66.7503 58.9869 66.75 59.7969H58.4062L54.2344 41.7188V30.5938Z" fill="#FEC9A3"/>
<path d="M41.9524 21.9131C42.7068 22.4161 43.5932 22.6846 44.5 22.6846C45.4067 22.6846 46.2932 22.4161 47.0476 21.9131C47.3585 21.6963 47.65 21.4528 47.9187 21.1855V18.5127H41.0813V21.207C41.3515 21.466 41.6428 21.7021 41.9522 21.9128L41.9524 21.9131Z" fill="#FEB784"/>
<path d="M35.4131 36.1562C35.333 36.1561 35.2531 36.1493 35.1741 36.1359C34.9942 36.1047 34.8221 36.0384 34.6678 35.9407C34.5135 35.843 34.3799 35.7158 34.2747 35.5665C34.1696 35.4172 34.0948 35.2487 34.0548 35.0705C34.0148 34.8923 34.0102 34.7079 34.0415 34.528L34.7858 30.2407C34.817 30.0607 34.8833 29.8887 34.981 29.7344C35.0787 29.5801 35.2058 29.4466 35.3551 29.3414C35.5044 29.2362 35.673 29.1615 35.8512 29.1215C36.0294 29.0814 36.2137 29.0769 36.3936 29.1081C36.5736 29.1393 36.7456 29.2056 36.8999 29.3033C37.0542 29.401 37.1877 29.5281 37.2929 29.6774C37.3981 29.8267 37.4728 29.9953 37.5128 30.1735C37.5529 30.3517 37.5574 30.536 37.5262 30.7159L36.782 35.0032C36.7261 35.3258 36.5581 35.6183 36.3077 35.8292C36.0573 36.0401 35.7405 36.1559 35.4131 36.1562Z" fill="#FEB784"/>
<path d="M55.6249 53.9145V54.2344C55.6246 55.6314 55.0988 56.9772 54.152 58.0045C53.2052 59.0318 51.9067 59.6654 50.5144 59.7795C50.3649 59.7899 50.2154 59.7969 50.0624 59.7969H40.328C38.8528 59.7969 37.4379 59.2108 36.3948 58.1677C35.3516 57.1245 34.7655 55.7096 34.7655 54.2344C34.7663 51.4782 35.2919 48.7474 36.3144 46.1879L37.114 44.1923C37.25 43.8518 37.3124 43.4863 37.2971 43.1199C37.2818 42.7535 37.1892 42.3945 37.0253 42.0664C36.6029 41.2216 36.2205 40.4463 35.6225 39.7093C35.0764 39.0341 34.6571 38.2655 34.3849 37.4408C34.3136 37.227 33.8147 34.7656 34.0216 34.7656H53.3078L51.6929 42.0264C51.5399 42.7217 51.658 43.4491 52.0232 44.0602L53.6433 46.7598C54.94 48.921 55.625 51.3941 55.6249 53.9145Z" fill="#F2F2F2"/>
<path d="M55.625 53.9145V54.2344C55.6247 55.6314 55.0989 56.9772 54.1521 58.0045C53.2053 59.0318 51.9068 59.6654 50.5145 59.7795C50.3337 59.7917 50.1529 59.7969 49.9756 59.7969H44.5V50.0625H55.0809C55.4421 51.3146 55.6253 52.6114 55.625 53.9145Z" fill="#FEB784"/>
<path d="M57.3751 84.8281H48.6719L40.5131 55.6076C40.318 54.9499 40.2791 54.2558 40.3995 53.5804C40.5198 52.9051 40.7962 52.2671 41.2065 51.7174C41.6169 51.1676 42.1499 50.7212 42.7631 50.4137C43.3763 50.1062 44.0528 49.9461 44.7388 49.946C45.5987 49.946 46.4334 50.2355 47.1087 50.7679C47.7839 51.3002 48.2602 52.0444 48.4609 52.8804L53.7824 77.7591L57.3751 84.8281Z" fill="#FEC093"/>
<path d="M48.4608 52.8809C48.2602 52.0448 47.7839 51.3006 47.1086 50.7683C46.4334 50.236 45.5986 49.9465 44.7388 49.9465C43.907 49.951 43.094 50.1949 42.3972 50.6491L40.9792 57.2779L44.7185 70.6696L49.104 55.8873L48.4608 52.8809Z" fill="#FEB784"/>
<path d="M43.1094 42.3329L37.6173 47.4203C35.799 49.1045 34.5927 51.7554 34.5927 54.2344C34.5927 57.4638 37.0417 59.7969 40.2711 59.7969H43.1094L49.5914 48.4649C50.0795 47.4883 50.2094 46.3715 49.9584 45.3091C49.7075 44.2466 49.0916 43.3059 48.2182 42.651C47.4905 42.1054 46.6191 41.7845 45.7113 41.728C44.8036 41.6715 43.8991 41.8818 43.1094 42.3329Z" fill="#FEC093"/>
<path d="M31.9844 79.3816L40.2122 79.2656L49.877 47.3803C50.0722 46.7227 50.1111 46.0286 49.9908 45.3532C49.8704 44.6779 49.5941 44.04 49.1838 43.4902C48.7736 42.9405 48.2406 42.4941 47.6274 42.1865C47.0143 41.879 46.3378 41.7188 45.6518 41.7188C44.792 41.7187 43.9572 42.0082 43.2819 42.5405C42.6067 43.0729 42.1304 43.8171 41.9298 44.6531L36.1563 72.3125L31.9844 79.3816Z" fill="#FEC9A3"/>
<path d="M50.0625 11.0085V14.3391C50.0622 15.4536 49.787 16.5509 49.2613 17.5336C48.7355 18.5163 47.9754 19.3542 47.0483 19.9729C46.4837 20.3482 45.8432 20.5942 45.1725 20.6934C44.5018 20.7926 43.8175 20.7424 43.1685 20.5465C43.1442 20.5399 43.1204 20.5318 43.0972 20.5222C42.6915 20.3936 42.3059 20.2087 41.9517 19.9729C41.0246 19.3542 40.2644 18.5164 39.7386 17.5337C39.2129 16.5509 38.9377 15.4536 38.9375 14.3391V11.0085C38.9375 10.2781 39.0814 9.55474 39.3609 8.87987C39.6405 8.20499 40.0502 7.59179 40.5667 7.07526C41.0832 6.55874 41.6965 6.14901 42.3713 5.86946C43.0462 5.58992 43.7695 5.44604 44.5 5.44604C45.2305 5.44604 45.9538 5.58992 46.6287 5.86946C47.3036 6.14901 47.9168 6.55874 48.4333 7.07526C48.9498 7.59179 49.3595 8.20499 49.6391 8.87987C49.9186 9.55474 50.0625 10.2781 50.0625 11.0085Z" fill="#FEC9A3"/>
<path d="M50.0625 11.0086V14.3391C50.0622 15.4537 49.787 16.5509 49.2612 17.5336C48.7354 18.5164 47.9753 19.3542 47.0483 19.9729C46.4837 20.3482 45.8432 20.5943 45.1725 20.6934C44.5018 20.7926 43.8175 20.7424 43.1684 20.5465C43.1442 20.54 43.1204 20.5318 43.0972 20.5222C43.9547 19.7804 44.6426 18.8628 45.1141 17.8316C45.5856 16.8004 45.8297 15.6798 45.8297 14.546V10.6609C45.8303 9.67888 45.6071 8.70964 45.177 7.82681C44.7469 6.94399 44.1212 6.17081 43.3475 5.56601C44.1579 5.39439 44.9963 5.40592 45.8017 5.59977C46.607 5.79362 47.3589 6.16489 48.0024 6.68647C48.646 7.20805 49.1649 7.86678 49.5213 8.61454C49.8777 9.3623 50.0626 10.1802 50.0625 11.0086Z" fill="#FEC093"/>
<path d="M51.4079 7.83615L36.1562 17.2229V12.5156C36.1563 10.7301 36.7291 8.99174 37.7904 7.55596C38.8517 6.12018 40.3457 5.06272 42.0526 4.539C43.7596 4.01529 45.5895 4.05294 47.2734 4.64642C48.9574 5.23991 50.4065 6.35792 51.4079 7.83615Z" fill="#FFB531"/>
</svg>
