<svg width="89" height="89" viewBox="0 0 89 89" fill="none" xmlns="http://www.w3.org/2000/svg">
<path d="M31.9844 18.0781C35.8245 18.0781 38.9375 14.9651 38.9375 11.125C38.9375 7.28489 35.8245 4.17188 31.9844 4.17188C28.1443 4.17188 25.0312 7.28489 25.0312 11.125C25.0312 14.9651 28.1443 18.0781 31.9844 18.0781Z" fill="#FFA912"/>
<path d="M74.1628 42.7581C72.1521 39.5249 68.5307 37.5469 64.6231 37.5469H24.5343C20.542 37.5469 16.8558 39.6107 14.875 42.955L9.33704 52.3049L9.73441 58.4062H79.2657V50.9638L74.1628 42.7581Z" fill="#FEB784"/>
<path d="M15.0361 63.967H34.7656L43.1094 61.127L75.0938 63.9687H78.0189C81.7795 63.9687 84.8281 60.8558 84.8281 57.0156C84.8281 53.062 81.604 49.9039 77.7359 50.0685L15.0361 55.447V63.967Z" fill="#FEC9A3"/>
<path d="M56.3068 27.9955L55.2049 28.5135L51.0603 19.6983L52.1622 19.1801C53.0389 18.7679 54.0435 18.7209 54.9549 19.0494C55.8663 19.3778 56.6099 20.0549 57.0221 20.9316L58.0586 23.1354C58.2627 23.5696 58.3793 24.0397 58.4017 24.5189C58.4241 24.9981 58.3519 25.477 58.1893 25.9283C58.0266 26.3796 57.7766 26.7944 57.4536 27.1491C57.1306 27.5038 56.7409 27.7914 56.3068 27.9955Z" fill="#FEB784"/>
<path d="M29.8612 40.4294L30.9631 39.9112L26.8184 31.0961L25.7165 31.6141C24.8398 32.0263 24.1627 32.7699 23.8342 33.6814C23.5058 34.5928 23.5528 35.5974 23.965 36.4741L25.0012 38.6779C25.4134 39.5547 26.1571 40.2317 27.0685 40.5602C27.9799 40.8887 28.9845 40.8416 29.8612 40.4294Z" fill="#FEC093"/>
<path d="M55.9871 39.9805C56.8288 35.3744 56.3069 30.6227 54.4856 26.3091L51.1105 18.3163C50.375 16.5744 49.2952 14.9991 47.9359 13.6848C46.5766 12.3705 44.9658 11.3443 43.2001 10.6678C41.4345 9.99137 39.5504 9.67856 37.6609 9.74816C35.7713 9.81777 33.9154 10.2683 32.2043 11.0729C30.4931 11.8774 28.9622 13.0193 27.7032 14.43C26.4443 15.8408 25.4833 17.4913 24.8779 19.2826C24.2725 21.0739 24.0352 22.969 24.1803 24.8543C24.3253 26.7395 24.8497 28.576 25.722 30.2536L29.7246 37.9514C31.8847 42.1058 35.2111 45.5389 39.2952 47.829C41.184 48.8882 43.3032 49.4692 45.468 49.5214C46.9798 49.5579 48.4794 49.242 49.8479 48.5985C51.2164 47.9551 52.4163 47.0019 53.3525 45.8143C54.6934 44.1137 55.5978 42.1109 55.9871 39.9805Z" fill="#FFD5B8"/>
<path d="M55.9865 39.9805C55.5984 42.111 54.6942 44.1139 53.353 45.8142C52.441 46.9709 51.2787 47.9058 49.9533 48.5486C48.628 49.1914 47.1741 49.5254 45.7011 49.5254C45.6229 49.5254 45.5464 49.5237 45.4682 49.5219C43.3034 49.4689 41.1844 48.8877 39.2956 47.8288C35.2111 45.5393 31.8845 42.1064 29.7246 37.9519L25.777 30.3609V30.3591L25.7213 30.2531C24.8492 28.5754 24.325 26.7389 24.18 24.8537C24.0351 22.9685 24.2725 21.0734 24.8779 19.2822C25.4834 17.491 26.4444 15.8405 27.7034 14.4298C28.9624 13.0192 30.4934 11.8773 32.2045 11.0729C33.9156 10.2684 35.7715 9.81785 37.661 9.74828C39.5505 9.6787 41.4346 9.99153 43.2003 10.668C44.9659 11.3444 46.5767 12.3706 47.936 13.6849C49.2953 14.9991 50.3751 16.5745 51.1107 18.3163L51.1732 18.4641L54.4864 26.3089C56.3073 30.6228 56.8287 35.3745 55.9865 39.9805Z" fill="#FEC9A3"/>
<path d="M51.1732 18.4639C49.5184 16.531 47.8809 15.1838 46.1983 14.3512C45.3637 13.9339 44.475 13.6349 43.5578 13.4629C42.6749 13.3038 41.7752 13.2588 40.8809 13.3291C39.8545 13.4139 38.8404 13.6098 37.8563 13.9131C37.0476 14.1597 36.2537 14.4522 35.4783 14.7892C35.1115 14.9457 34.7378 15.116 34.3606 15.2968C33.8791 15.5286 33.4179 15.7661 32.9769 16.0095C32.0713 16.5053 31.2048 17.0696 30.3851 17.6974C29.6283 18.2771 28.9297 18.9291 28.2992 19.6442C27.8126 20.1964 27.3795 20.7936 27.0059 21.4277C26.5299 22.231 26.1606 23.0929 25.9073 23.9917C25.3667 25.9003 25.325 28.0158 25.777 30.359L25.7213 30.253C24.6794 28.258 24.1349 26.0407 24.1343 23.79C24.1343 23.6545 24.136 23.5189 24.1412 23.385C24.1985 21.4167 24.6675 19.4821 25.518 17.7061C25.9201 16.8658 26.4046 16.0675 26.9642 15.3229C28.0377 13.8974 29.3749 12.6912 30.9031 11.7698C31.3248 11.5152 31.7594 11.2826 32.2051 11.0728C32.6049 10.885 33.0082 10.7182 33.415 10.5722C36.0595 9.61401 38.9315 9.47529 41.6562 10.1741C42.6063 10.4187 43.5284 10.7612 44.4079 11.1962C47.4251 12.687 49.8045 15.2145 51.1107 18.3162L51.1732 18.4639Z" fill="#FFB531"/>
<path d="M33.2596 36.102L31.5159 33.9345C33.3684 32.4481 35.5478 31.4233 37.8742 30.9447L38.4305 33.6689C36.5384 34.0587 34.7661 34.8927 33.2596 36.102Z" fill="#F5AF7D"/>
<path d="M41.9713 41.8897L41.9061 39.1085L42.1344 39.1031C43.9172 39.0528 45.6314 38.4047 47.0016 37.2629L48.7859 39.3951C46.9329 40.9432 44.6115 41.8203 42.1978 41.8843L41.9713 41.8897Z" fill="#F5AF7D"/>
<path d="M31.3475 32.787L28.77 31.741C30.2842 28.0091 34.236 26.1438 38.1661 27.3028L37.3784 29.9701C34.8051 29.2139 32.328 30.3697 31.3475 32.787Z" fill="#F5AF7D"/>
<path d="M43.4571 27.1118L40.9018 26.0167C42.5151 22.2509 46.4725 20.3972 50.3116 21.6126L49.475 24.2635C46.9825 23.4818 44.5122 24.6497 43.4571 27.1118Z" fill="#F5AF7D"/>
<path d="M39.2228 29.3156L41.7408 28.1331L45.3626 35.8456L42.8447 37.028L39.2228 29.3156Z" fill="#F5AF7D"/>
<path d="M45.7072 30.4362L43.9636 28.2688C45.8158 26.7829 47.9946 25.7584 50.3205 25.2798L50.8795 28.0037C48.9871 28.3936 47.2144 29.2273 45.7072 30.4362Z" fill="#F5AF7D"/>
<path d="M10.6364 63.967H15.2969L41.7188 54.2344L61.1875 51.4531L55.625 47.2812H40.3281L16.6307 49.6507C13.8957 49.9242 11.1997 50.5008 8.59215 51.3699C7.30503 51.7989 6.18552 52.622 5.39219 53.7226C4.59886 54.8233 4.17194 56.1456 4.17188 57.5023C4.17185 58.3513 4.33904 59.1919 4.66391 59.9763C4.98877 60.7606 5.46493 61.4732 6.06522 62.0735C6.66551 62.6738 7.37815 63.15 8.16247 63.4749C8.94679 63.7998 9.78743 63.967 10.6364 63.967Z" fill="#FEC9A3"/>
<path d="M80.6562 63.9688H8.34375C6.03969 63.9688 4.17188 65.8366 4.17188 68.1406V73.7031C4.17188 76.0072 6.03969 77.875 8.34375 77.875H80.6562C82.9603 77.875 84.8281 76.0072 84.8281 73.7031V68.1406C84.8281 65.8366 82.9603 63.9688 80.6562 63.9688Z" fill="#EBEBE9"/>
<path d="M19.4261 77.5767L18.1428 77.6669L18.5796 82.1669C18.7333 83.7488 20.1983 84.9364 21.8521 84.8203C23.5059 84.7041 24.722 83.3278 24.5685 81.7461C24.3272 79.2609 22.0249 77.3941 19.4261 77.5767Z" fill="#FEB2B2"/>
<path d="M18.6528 78.7934L18.143 77.6656L13.8028 79.3533C12.2773 79.9466 11.5735 81.6056 12.2306 83.059C12.8876 84.5124 14.6569 85.2098 16.1822 84.6165C18.5793 83.6844 19.6854 81.0774 18.6528 78.7934Z" fill="#EC8C8C"/>
<path d="M14.9687 74.1916C14.4379 73.629 13.7149 73.2866 12.9433 73.2326C12.1718 73.1786 11.4081 73.4169 10.8041 73.9001L10.7596 73.9364C10.4683 74.1646 10.2275 74.4508 10.0525 74.7769C9.87755 75.103 9.77219 75.4618 9.74312 75.8307C9.71405 76.1997 9.76191 76.5706 9.88365 76.9201C10.0054 77.2695 10.1984 77.5899 10.4504 77.8609L10.5981 78.0224C12.2709 79.8521 15.2009 80.0572 17.1421 78.4806L18.1454 77.6659L14.9687 74.1916Z" fill="#F59898"/>
<path d="M19.5048 69.9583C18.0764 69.1311 16.2314 69.542 15.3837 70.8763C14.0513 72.9727 14.7906 75.7261 17.035 77.0258L18.1432 77.6678L20.5556 73.8717C21.4033 72.5385 20.9328 70.7854 19.5048 69.9583Z" fill="#EC8C8C"/>
<path d="M24.0752 73.2094C21.529 72.6211 18.9994 74.0862 18.4258 76.4817L18.1426 77.6648H18.1466L19.426 77.5758C20.7262 77.4855 22.0096 77.9117 22.9975 78.7618C24.5317 78.9935 26.0009 78.0941 26.3475 76.6468C26.7127 75.123 25.6951 73.5838 24.0752 73.2094Z" fill="#F59898"/>
<path d="M80.6562 63.9688H63.5863C52.1874 71.2621 37.5371 75.4984 26.186 77.875H80.6562C81.7627 77.875 82.8238 77.4355 83.6062 76.6531C84.3886 75.8707 84.8281 74.8096 84.8281 73.7031V68.1406C84.8281 67.0342 84.3886 65.973 83.6062 65.1907C82.8238 64.4083 81.7627 63.9688 80.6562 63.9688Z" fill="#E0E0DE"/>
<path d="M67.8799 48.0634L41.4947 52.8601L11.5696 63.9687H19.5452L42.076 55.5843L68.328 50.8099C68.5083 50.7805 68.6811 50.7159 68.8365 50.6197C68.9918 50.5235 69.1267 50.3976 69.2334 50.2493C69.3401 50.101 69.4166 49.9331 69.4584 49.7552C69.5002 49.5773 69.5066 49.393 69.4772 49.2126C69.4478 49.0323 69.3831 48.8595 69.2869 48.7042C69.1907 48.5488 69.0649 48.4139 68.9165 48.3072C68.7682 48.2005 68.6003 48.1241 68.4224 48.0822C68.2446 48.0404 68.0602 48.034 67.8799 48.0634Z" fill="#FEB784"/>
<path d="M35.4783 14.7893C35.1115 14.9458 34.7378 15.1161 34.3606 15.2969C33.8791 15.5287 33.4179 15.7662 32.9769 16.0096L30.9031 11.7699C31.3248 11.5153 31.7594 11.2827 32.2051 11.0729C32.6049 10.8852 33.0082 10.7183 33.415 10.5723L35.4783 14.7893Z" fill="#F7A116"/>
<path d="M30.3852 17.6974C29.6283 18.2771 28.9297 18.9291 28.2993 19.6442L25.518 17.7061C25.9202 16.8658 26.4046 16.0675 26.9643 15.3229L30.3852 17.6974Z" fill="#F7A116"/>
<path d="M27.0059 21.4278C26.5299 22.2311 26.1606 23.093 25.9073 23.9918L24.1412 23.3851C24.1677 22.4358 24.2912 21.4916 24.5098 20.5674L27.0059 21.4278Z" fill="#F7A116"/>
<path d="M41.6561 10.1742L40.8809 13.3292C39.8545 13.4141 38.8404 13.6099 37.8563 13.9132L38.8888 9.75354C39.823 9.80078 40.7501 9.94171 41.6561 10.1742Z" fill="#F7A116"/>
<path d="M46.8189 12.7103L46.1983 14.3513C45.3637 13.934 44.475 13.635 43.5579 13.463L44.4079 11.1963C45.2615 11.6166 46.0695 12.124 46.8189 12.7103Z" fill="#F7A116"/>
</svg>
